<svg width="69" height="69" viewBox="0 0 69 69" fill="none" xmlns="http://www.w3.org/2000/svg">
<path fill-rule="evenodd" clip-rule="evenodd" d="M54.1874 6.16508C43.1287 25.4298 23.8245 39.3579 1.08949 43.1351C0.37829 40.3753 0 37.4818 0 34.5C0 15.4462 15.4462 0 34.5 0C41.8182 0 48.6043 2.27862 54.1874 6.16508Z" fill="#E0E413" fill-opacity="0.52"/>
<circle cx="34.5" cy="34.5" r="34.5" fill="#E0E413" fill-opacity="0.52"/>
<path fill-rule="evenodd" clip-rule="evenodd" d="M21.0214 66.2678C29.498 54.6451 34.5 40.3267 34.5 24.84C34.5 16.2009 32.9435 7.92538 30.0955 0.278534C13.1216 2.44146 0 16.9384 0 34.5C0 48.7713 8.66528 61.0187 21.0214 66.2678Z" fill="#EBA900" fill-opacity="0.24"/>
<path d="M34.8277 48.02C32.801 48.02 31.0623 47.7213 29.6117 47.124C28.161 46.5267 27.0623 45.748 26.3157 44.788C25.5903 43.8067 25.2063 42.74 25.1637 41.588C25.1637 41.4173 25.2277 41.268 25.3557 41.14C25.505 40.9907 25.6757 40.916 25.8677 40.916H29.8997C30.1557 40.916 30.3583 40.9693 30.5077 41.076C30.6783 41.1613 30.849 41.3 31.0197 41.492C31.297 42.0467 31.745 42.5053 32.3637 42.868C32.9823 43.2307 33.8037 43.412 34.8277 43.412C36.0437 43.412 36.9717 43.22 37.6117 42.836C38.2517 42.452 38.5717 41.9293 38.5717 41.268C38.5717 40.7987 38.401 40.4147 38.0597 40.116C37.7397 39.8173 37.2277 39.5507 36.5237 39.316C35.8197 39.0813 34.7743 38.8147 33.3877 38.516C30.8277 37.9827 28.9077 37.204 27.6277 36.18C26.369 35.1347 25.7397 33.652 25.7397 31.732C25.7397 30.4307 26.1023 29.268 26.8277 28.244C27.553 27.22 28.5877 26.42 29.9317 25.844C31.2757 25.268 32.8437 24.98 34.6357 24.98C36.4917 24.98 38.1023 25.3 39.4677 25.94C40.833 26.58 41.8677 27.3907 42.5717 28.372C43.297 29.332 43.681 30.2813 43.7237 31.22C43.7237 31.412 43.6597 31.572 43.5317 31.7C43.4037 31.828 43.2437 31.892 43.0517 31.892H38.8277C38.5717 31.892 38.3583 31.8493 38.1877 31.764C38.0383 31.6787 37.8997 31.54 37.7717 31.348C37.6437 30.8573 37.2917 30.4413 36.7157 30.1C36.161 29.7587 35.4677 29.588 34.6357 29.588C33.6757 29.588 32.9397 29.7587 32.4277 30.1C31.9157 30.4413 31.6597 30.9427 31.6597 31.604C31.6597 32.052 31.7983 32.4253 32.0757 32.724C32.3743 33.0227 32.8437 33.3 33.4837 33.556C34.145 33.7907 35.0837 34.036 36.2997 34.292C38.2837 34.6547 39.8623 35.1133 41.0357 35.668C42.2303 36.2013 43.105 36.9053 43.6597 37.78C44.2143 38.6333 44.4917 39.7107 44.4917 41.012C44.4917 42.4413 44.0757 43.6893 43.2437 44.756C42.433 45.8013 41.2917 46.612 39.8197 47.188C38.369 47.7427 36.705 48.02 34.8277 48.02Z" fill="black"/>
</svg>
